# xmcd
#
# Track frame offsets:
#	150
#	19175
#	38605
#	53242
#	70084
#	85709
#	103191
#	123262
#	141857
#	161185
#	179735
#	198223
#	212293
#	230725
#	247665
#
# Disc length: 3608 seconds
#
# Revision: 2
# Processed by: cddbd v1.5.2PL0 Copyright (c) Steve Scherf et al.
# Submitted via: audiograbber 1.83.01
#
DISCID=c80e160f
DTITLE=Chartbuster Country May 2007 - CB60363
DYEAR=2007
DGENRE=Karaoke
TTITLE0=Paisley, Brad - Ticks
TTITLE1=Strait, George - Wrapped
TTITLE2=Clark, Terri - Dirty Girl
TTITLE3=Atkins, Rodney - These Are My People
TTITLE4=Dalley, Amy - Good Kind Of Crazy
TTITLE5=Worley, Darryl - Living In The Here And Now
TTITLE6=O'Neal, Jamie - God Don't Make Mistakes
TTITLE7=Carrington, Rodney - Show Them To Me
TTITLE8=Lambert, Miranda - Famous In A Small Town
TTITLE9=Dixie Chicks - Lubbock Or Leave It
TTITLE10=Wreckers, The - Tennessee
TTITLE11=Young , Chris - You're Gonna Love Me
TTITLE12=Johnson, Carolyn Dawn - Got A Good Day
TTITLE13=Tomlinson, Trent - Just Might Have Her Radio On
TTITLE14=Gill, Vince - What You Give Away
EXTD=
EXTT0=
EXTT1=
EXTT2=
EXTT3=
EXTT4=
EXTT5=
EXTT6=
EXTT7=
EXTT8=
EXTT9=
EXTT10=
EXTT11=
EXTT12=
EXTT13=
EXTT14=
PLAYORDER=
